# xmcd CD database file
#
# Track frame offsets:
#	150
#	21317
#	25940
#	43297
#	72107
#	97267
#	117322
#	136617
#	162125
#	191080
#	210020
#	233937
#	288842
#	309754
#	332028
#
# Disc length: 4679 seconds
#
# Revision: 4
# Processed by: cddbd v1.5.1PL2 Copyright (c) Steve Scherf et al.
# Submitted via: Feurio! 1.68 - http://www.feurio.com
#
DISCID=cb12450f
DTITLE=Little Feat - Live  CD 2
DYEAR=2002
DGENRE=Bluesrock
TTITLE0=Willin'
TTITLE1=Don't Bogart That Joint
TTITLE2=A Apolitical Blues
TTITLE3=Sailin' Shoes
TTITLE4=Feat Don't Fail Me Now
TTITLE5=One Love Stand
TTITLE6=Rock And Roll Doctor
TTITLE7=Skin It Back
TTITLE8=On Your Way Down
TTITLE9=Walkin All Night
TTITLE10=Cold, Cold, Cold
TTITLE11=Day At The Dog Races
TTITLE12=Skin It Back
TTITLE13=Red Streamliner
TTITLE14=Teenage Nervous Breakdown
EXTD=
EXTT0=
EXTT1=
EXTT2=
EXTT3=
EXTT4=
EXTT5=
EXTT6=
EXTT7=
EXTT8=
EXTT9=
EXTT10=
EXTT11=
EXTT12=
EXTT13=
EXTT14=
PLAYORDER=
